<?xml version="1.0" standalone="no"?>
<!DOCTYPE svg PUBLIC "-//W3C//DTD SVG 20010904//EN"
 "http://www.w3.org/TR/2001/REC-SVG-20010904/DTD/svg10.dtd">
<svg version="1.0" xmlns="http://www.w3.org/2000/svg"
 width="64.000000pt" height="64.000000pt" viewBox="0 0 64.000000 64.000000"
 preserveAspectRatio="xMidYMid meet">

<g transform="translate(0.000000,64.000000) scale(0.100000,-0.100000)"
fill="#000000" stroke="none">
<path d="M17 586 c-8 -21 13 -36 50 -36 31 0 33 -2 39 -50 4 -28 11 -53 16
-56 6 -4 8 6 4 25 -3 17 -9 45 -12 61 -5 27 -9 30 -45 30 -28 0 -39 4 -39 15
0 19 83 21 98 2 6 -6 27 -109 47 -227 21 -118 41 -216 46 -218 14 -6 10 -32
-5 -32 -25 0 -34 24 -56 163 -13 75 -26 137 -30 137 -10 0 39 -282 52 -297 6
-7 16 -13 22 -13 7 0 23 -11 36 -25 29 -31 73 -33 97 -5 15 17 30 20 93 20 65
0 77 -3 88 -21 20 -32 83 -23 101 15 12 25 11 31 -7 55 -15 21 -26 25 -53 23
-119 -11 -223 -12 -232 -3 -14 14 -64 14 -72 1 -12 -20 -35 -10 -35 15 l0 25
133 1 c72 1 149 1 170 0 42 -1 62 23 35 43 -14 10 -14 21 -1 101 9 52 21 93
29 98 34 20 1 57 -50 57 -23 0 -25 4 -28 53 l-3 52 -65 3 c-48 2 -67 -1 -75
-12 -8 -10 -33 -16 -76 -18 l-64 -3 -3 -37 c-3 -34 -6 -38 -31 -38 -26 0 -29
4 -34 40 -3 23 -11 47 -17 55 -17 20 -116 21 -123 1z m483 -46 l0 -40 -60 0
-60 0 0 40 0 40 60 0 60 0 0 -40z m-140 -20 l0 -30 -65 0 -65 0 0 30 0 30 65
0 65 0 0 -30z m-120 -105 c0 -10 -10 -15 -30 -15 -20 0 -30 5 -30 15 0 10 10
15 30 15 20 0 30 -5 30 -15z m70 0 c0 -9 -9 -15 -25 -15 -16 0 -25 6 -25 15 0
9 9 15 25 15 16 0 25 -6 25 -15z m90 0 c0 -10 -11 -15 -35 -15 -24 0 -35 5
-35 15 0 10 11 15 35 15 24 0 35 -5 35 -15z m70 0 c0 -10 -10 -15 -30 -15 -20
0 -30 5 -30 15 0 10 10 15 30 15 20 0 30 -5 30 -15z m88 3 c-7 -20 -68 -23
-68 -4 0 12 10 16 36 16 24 0 34 -4 32 -12z m-315 -53 c1 -6 -10 -11 -25 -13
-26 -3 -38 14 -22 31 8 8 45 -7 47 -18z m77 0 c0 -10 -10 -15 -30 -15 -20 0
-30 5 -30 15 0 10 10 15 30 15 20 0 30 -5 30 -15z m70 0 c0 -10 -10 -15 -30
-15 -20 0 -30 5 -30 15 0 10 10 15 30 15 20 0 30 -5 30 -15z m78 3 c-7 -20
-58 -23 -58 -4 0 11 10 16 31 16 20 0 29 -4 27 -12z m80 0 c-7 -20 -68 -23
-68 -4 0 12 10 16 36 16 24 0 34 -4 32 -12z m-298 -48 c0 -15 -7 -20 -25 -20
-14 0 -25 2 -25 4 0 2 -3 11 -6 20 -5 13 1 16 25 16 24 0 31 -4 31 -20z m70 0
c0 -15 -7 -20 -25 -20 -18 0 -25 5 -25 20 0 15 7 20 25 20 18 0 25 -5 25 -20z
m70 0 c0 -16 -7 -20 -30 -20 -23 0 -30 4 -30 20 0 16 7 20 30 20 23 0 30 -4
30 -20z m70 0 c0 -15 -7 -20 -25 -20 -18 0 -25 5 -25 20 0 15 7 20 25 20 18 0
25 -5 25 -20z m80 0 c0 -16 -7 -20 -30 -20 -23 0 -30 4 -30 20 0 16 7 20 30
20 23 0 30 -4 30 -20z m-282 -57 c6 -19 -45 -16 -52 3 -5 12 0 15 21 12 14 -2
28 -9 31 -15z m62 2 c0 -9 -9 -15 -25 -15 -16 0 -25 6 -25 15 0 9 9 15 25 15
16 0 25 -6 25 -15z m70 0 c0 -16 -45 -21 -54 -6 -8 12 4 21 31 21 14 0 23 -6
23 -15z m68 3 c-7 -20 -48 -23 -48 -4 0 11 9 16 26 16 16 0 24 -5 22 -12z m72
-3 c0 -10 -10 -15 -30 -15 -20 0 -30 5 -30 15 0 10 10 15 30 15 20 0 30 -5 30
-15z m-30 -150 c0 -12 -15 -15 -75 -15 -60 0 -75 3 -75 15 0 12 15 15 75 15
60 0 75 -3 75 -15z m-200 -21 c0 -8 -4 -12 -10 -9 -5 3 -10 10 -10 16 0 5 5 9
10 9 6 0 10 -7 10 -16z m278 5 c-2 -6 -8 -10 -13 -10 -5 0 -11 4 -13 10 -2 6
4 11 13 11 9 0 15 -5 13 -11z"/>
<path d="M554 572 c-9 -14 -8 -22 2 -37 14 -18 14 -18 28 0 10 15 11 23 2 37
-6 10 -13 18 -16 18 -3 0 -10 -8 -16 -18z"/>
</g>
</svg>
